<svg xmlns="http://www.w3.org/2000/svg" width="40" height="28" viewBox="0 0 40 28">
  <path id="Icon_zocial-email" data-name="Icon zocial-email" d="M.072,29.588V6.548q0-.04.116-.76l13.076,11.6-13.038,13a3.5,3.5,0,0,1-.154-.8Zm1.736-25.4a1.61,1.61,0,0,1,.656-.12H37.68a2.114,2.114,0,0,1,.694.12L25.26,15.828l-1.736,1.44-3.433,2.92-3.433-2.92-1.736-1.44Zm.039,27.76L15,18.868l5.092,4.28,5.092-4.28,13.153,13.08a1.793,1.793,0,0,1-.656.12H2.464a1.692,1.692,0,0,1-.617-.12Zm25.072-14.56,13.038-11.6a2.468,2.468,0,0,1,.116.76v23.04a3.171,3.171,0,0,1-.116.8Z" transform="translate(-0.072 -4.068)" fill="#fff"/>
</svg>
