<svg id="グループ_5" data-name="グループ 5" xmlns="http://www.w3.org/2000/svg" xmlns:xlink="http://www.w3.org/1999/xlink" width="44" height="42" viewBox="0 0 44 42">
  <defs>
    <clipPath id="clip-path">
      <rect id="長方形_10" data-name="長方形 10" width="44" height="42" fill="none"/>
    </clipPath>
  </defs>
  <g id="グループ_4" data-name="グループ 4" transform="translate(0 0)" clip-path="url(#clip-path)">
    <path id="パス_1" data-name="パス 1" d="M44,17.885C44,8.023,34.13,0,22,0S0,8.023,0,17.885c0,8.841,7.827,16.246,18.4,17.647.716.155,1.691.474,1.938,1.087a4.523,4.523,0,0,1,.071,1.992s-.257,1.555-.314,1.887c-.1.557-.442,2.179,1.906,1.188s12.669-7.474,17.284-12.8h0c3.189-3.5,4.717-7.057,4.717-11M13.388,23.753H9.017A1.156,1.156,0,0,1,7.863,22.6V13.839a1.153,1.153,0,1,1,2.307,0v7.6h3.218a1.156,1.156,0,0,1,0,2.312M17.909,22.6a1.153,1.153,0,1,1-2.306,0V13.839a1.153,1.153,0,1,1,2.306,0Zm10.523,0a1.153,1.153,0,0,1-2.077.693l-4.48-6.111V22.6a1.154,1.154,0,1,1-2.307,0V13.839a1.153,1.153,0,0,1,2.076-.694l4.481,6.112V13.839a1.153,1.153,0,1,1,2.307,0ZM35.5,17.062a1.156,1.156,0,0,1,0,2.311H32.288v2.068H35.5a1.156,1.156,0,0,1,0,2.312H31.134A1.157,1.157,0,0,1,29.98,22.6V13.839a1.156,1.156,0,0,1,1.154-1.156H35.5a1.156,1.156,0,0,1,0,2.312H32.288v2.068Z" transform="translate(0 0)" fill="#fff"/>
  </g>
</svg>
